<svg width="390" height="199" viewBox="0 0 390 199" fill="none" xmlns="http://www.w3.org/2000/svg">
<g clip-path="url(#clip0_51_79)">
<mask id="path-1-inside-1_51_79" fill="white">
<path d="M67.0313 30.9444C67.0313 27.2299 69.7613 24.2152 73.125 24.2152C76.4888 24.2152 79.2188 27.2299 79.2188 30.9444C79.2188 34.6589 76.4888 37.6736 73.125 37.6736C69.7613 37.6736 67.0313 34.6589 67.0313 30.9444ZM382.2 118.425V320.302C382.2 322.98 380.238 325.147 377.812 325.147H12.1875C9.76219 325.147 7.8 322.98 7.8 320.302V145.342C7.8 142.663 9.76219 140.496 12.1875 140.496H21.8888L56.55 76.7033V51.1321C56.55 48.4539 58.5122 46.2871 60.9375 46.2871H85.3125C87.7378 46.2871 89.7 48.4539 89.7 51.1321V76.7033L124.361 140.496H129.675V91.5076C129.675 88.8294 131.637 86.6625 134.062 86.6625H141.862V64.5906C141.862 61.9124 143.825 59.7456 146.25 59.7456H154.05V37.6736C154.05 34.9954 156.012 32.8286 158.437 32.8286H178.425V10.7567C178.425 8.07844 180.387 5.91162 182.812 5.91162H207.187C209.613 5.91162 211.575 8.07844 211.575 10.7567V32.8286H231.562C233.988 32.8286 235.95 34.9954 235.95 37.6736V59.7456H243.75C246.175 59.7456 248.138 61.9124 248.138 64.5906V86.6625H255.937C258.363 86.6625 260.325 88.8294 260.325 91.5076V113.58H266.187C283.128 93.8225 286.991 66.8247 287.844 55.9772H280.312V46.2871H288.551C290.684 31.079 302.518 19.3701 316.875 19.3701C331.232 19.3701 343.066 31.079 345.199 46.2871H353.437V55.9772H345.906C346.759 66.8247 350.622 93.8225 367.563 113.58H377.812C380.238 113.58 382.2 115.746 382.2 118.425ZM297.412 46.2871H336.338C334.328 36.4489 326.381 29.0602 316.875 29.0602C307.369 29.0602 299.422 36.4489 297.412 46.2871ZM277.704 113.58H356.046C341.104 92.0863 337.777 66.5017 337.058 55.9772H296.693C295.973 66.5017 292.646 92.0863 277.704 113.58ZM260.325 123.27V194.33H373.413V123.27H260.325ZM150.637 86.6625H178.425V78.0491C178.425 67.9552 185.859 59.7456 195 59.7456C204.141 59.7456 211.575 67.9552 211.575 78.0491V86.6625H239.35V69.4357H231.562C229.137 69.4357 227.175 67.2689 227.175 64.5906V42.5187H207.187C204.762 42.5187 202.8 40.3519 202.8 37.6736V15.6017H187.2V37.6736C187.2 40.3519 185.238 42.5187 182.812 42.5187H162.825V64.5906C162.825 67.2689 160.863 69.4357 158.437 69.4357H150.637V86.6625ZM202.8 78.0491C202.8 73.2983 199.302 69.4357 195 69.4357C190.698 69.4357 187.2 73.2983 187.2 78.0491V86.6625H202.8V78.0491ZM32.1263 140.496H56.55V131.883C56.55 121.789 63.9844 113.58 73.125 113.58C82.2656 113.58 89.7 121.789 89.7 131.883V140.496H114.136L81.5466 80.5389C81.4978 80.4447 81.4978 80.3236 81.4491 80.2294C81.315 79.9468 81.2419 79.6372 81.1566 79.3277C81.0834 79.0047 80.9981 78.6951 80.9859 78.3721C80.9738 78.251 80.925 78.1568 80.925 78.0491V55.9772H65.325V78.0491C65.325 78.1568 65.2763 78.251 65.2641 78.3721C65.2519 78.6951 65.1666 79.0047 65.0934 79.3277C65.0081 79.6372 64.935 79.9468 64.8009 80.2294C64.7522 80.3236 64.7522 80.4447 64.7034 80.5389L32.1263 140.496ZM80.925 131.883C80.925 127.132 77.4272 123.27 73.125 123.27C68.8228 123.27 65.325 127.132 65.325 131.883V140.496H80.925V131.883ZM16.575 315.457H44.3625V248.164H101.887V315.457H129.675V150.187H16.575V315.457ZM77.5125 315.457H93.1125V257.854H77.5125V315.457ZM68.7375 257.854H53.1375V315.443H68.7375V257.854ZM227.175 257.854H211.575V315.443H227.163L227.175 257.854ZM251.55 315.457V96.3526H138.45V315.457H202.8V248.164H235.95V315.457H251.55ZM349.05 230.938H333.45V315.443H349.038L349.05 230.938ZM373.425 315.457V204.021H260.325V315.457H324.663V221.247H357.825V315.457H373.425ZM65.325 230.938H32.175V167.413H65.325V230.938ZM56.55 177.104H40.95V221.247H56.55V177.104ZM114.075 230.938H80.925V167.413H114.075V230.938ZM105.3 177.104H89.7V221.247H105.3V177.104ZM154.05 248.164H187.2V298.243H154.05V248.164ZM162.825 288.54H178.425V257.854H162.825V288.54ZM202.8 167.413H235.95V230.938H202.8V167.413ZM211.575 221.247H227.163V177.104H211.575V221.247ZM154.05 167.413H187.2V230.938H154.05V167.413ZM162.825 221.247H178.425V177.104H162.825V221.247ZM275.925 221.247H309.087V298.23H275.925V221.247ZM284.7 288.54H300.288V230.938H284.7V288.54ZM333.45 177.104H300.3V140.496H333.462L333.45 177.104ZM324.675 150.187H309.075V167.413H324.663L324.675 150.187ZM357.825 145.342H349.05V172.259H357.837L357.825 145.342ZM312.487 64.5906V91.5076H321.275V64.5906H312.487ZM284.7 145.342H275.925V172.259H284.712L284.7 145.342ZM202.8 113.58H235.95V150.187H202.8V113.58ZM211.575 140.496H227.163V123.27H211.575V140.496ZM154.05 113.58H187.2V150.187H154.05V113.58ZM162.825 140.496H178.425V123.27H162.825V140.496Z"/>
</mask>
<path d="M67.0313 30.9444C67.0313 27.2299 69.7613 24.2152 73.125 24.2152C76.4888 24.2152 79.2188 27.2299 79.2188 30.9444C79.2188 34.6589 76.4888 37.6736 73.125 37.6736C69.7613 37.6736 67.0313 34.6589 67.0313 30.9444ZM382.2 118.425V320.302C382.2 322.98 380.238 325.147 377.812 325.147H12.1875C9.76219 325.147 7.8 322.98 7.8 320.302V145.342C7.8 142.663 9.76219 140.496 12.1875 140.496H21.8888L56.55 76.7033V51.1321C56.55 48.4539 58.5122 46.2871 60.9375 46.2871H85.3125C87.7378 46.2871 89.7 48.4539 89.7 51.1321V76.7033L124.361 140.496H129.675V91.5076C129.675 88.8294 131.637 86.6625 134.062 86.6625H141.862V64.5906C141.862 61.9124 143.825 59.7456 146.25 59.7456H154.05V37.6736C154.05 34.9954 156.012 32.8286 158.437 32.8286H178.425V10.7567C178.425 8.07844 180.387 5.91162 182.812 5.91162H207.187C209.613 5.91162 211.575 8.07844 211.575 10.7567V32.8286H231.562C233.988 32.8286 235.95 34.9954 235.95 37.6736V59.7456H243.75C246.175 59.7456 248.138 61.9124 248.138 64.5906V86.6625H255.937C258.363 86.6625 260.325 88.8294 260.325 91.5076V113.58H266.187C283.128 93.8225 286.991 66.8247 287.844 55.9772H280.312V46.2871H288.551C290.684 31.079 302.518 19.3701 316.875 19.3701C331.232 19.3701 343.066 31.079 345.199 46.2871H353.437V55.9772H345.906C346.759 66.8247 350.622 93.8225 367.563 113.58H377.812C380.238 113.58 382.2 115.746 382.2 118.425ZM297.412 46.2871H336.338C334.328 36.4489 326.381 29.0602 316.875 29.0602C307.369 29.0602 299.422 36.4489 297.412 46.2871ZM277.704 113.58H356.046C341.104 92.0863 337.777 66.5017 337.058 55.9772H296.693C295.973 66.5017 292.646 92.0863 277.704 113.58ZM260.325 123.27V194.33H373.413V123.27H260.325ZM150.637 86.6625H178.425V78.0491C178.425 67.9552 185.859 59.7456 195 59.7456C204.141 59.7456 211.575 67.9552 211.575 78.0491V86.6625H239.35V69.4357H231.562C229.137 69.4357 227.175 67.2689 227.175 64.5906V42.5187H207.187C204.762 42.5187 202.8 40.3519 202.8 37.6736V15.6017H187.2V37.6736C187.2 40.3519 185.238 42.5187 182.812 42.5187H162.825V64.5906C162.825 67.2689 160.863 69.4357 158.437 69.4357H150.637V86.6625ZM202.8 78.0491C202.8 73.2983 199.302 69.4357 195 69.4357C190.698 69.4357 187.2 73.2983 187.2 78.0491V86.6625H202.8V78.0491ZM32.1263 140.496H56.55V131.883C56.55 121.789 63.9844 113.58 73.125 113.58C82.2656 113.58 89.7 121.789 89.7 131.883V140.496H114.136L81.5466 80.5389C81.4978 80.4447 81.4978 80.3236 81.4491 80.2294C81.315 79.9468 81.2419 79.6372 81.1566 79.3277C81.0834 79.0047 80.9981 78.6951 80.9859 78.3721C80.9738 78.251 80.925 78.1568 80.925 78.0491V55.9772H65.325V78.0491C65.325 78.1568 65.2763 78.251 65.2641 78.3721C65.2519 78.6951 65.1666 79.0047 65.0934 79.3277C65.0081 79.6372 64.935 79.9468 64.8009 80.2294C64.7522 80.3236 64.7522 80.4447 64.7034 80.5389L32.1263 140.496ZM80.925 131.883C80.925 127.132 77.4272 123.27 73.125 123.27C68.8228 123.27 65.325 127.132 65.325 131.883V140.496H80.925V131.883ZM16.575 315.457H44.3625V248.164H101.887V315.457H129.675V150.187H16.575V315.457ZM77.5125 315.457H93.1125V257.854H77.5125V315.457ZM68.7375 257.854H53.1375V315.443H68.7375V257.854ZM227.175 257.854H211.575V315.443H227.163L227.175 257.854ZM251.55 315.457V96.3526H138.45V315.457H202.8V248.164H235.95V315.457H251.55ZM349.05 230.938H333.45V315.443H349.038L349.05 230.938ZM373.425 315.457V204.021H260.325V315.457H324.663V221.247H357.825V315.457H373.425ZM65.325 230.938H32.175V167.413H65.325V230.938ZM56.55 177.104H40.95V221.247H56.55V177.104ZM114.075 230.938H80.925V167.413H114.075V230.938ZM105.3 177.104H89.7V221.247H105.3V177.104ZM154.05 248.164H187.2V298.243H154.05V248.164ZM162.825 288.54H178.425V257.854H162.825V288.54ZM202.8 167.413H235.95V230.938H202.8V167.413ZM211.575 221.247H227.163V177.104H211.575V221.247ZM154.05 167.413H187.2V230.938H154.05V167.413ZM162.825 221.247H178.425V177.104H162.825V221.247ZM275.925 221.247H309.087V298.23H275.925V221.247ZM284.7 288.54H300.288V230.938H284.7V288.54ZM333.45 177.104H300.3V140.496H333.462L333.45 177.104ZM324.675 150.187H309.075V167.413H324.663L324.675 150.187ZM357.825 145.342H349.05V172.259H357.837L357.825 145.342ZM312.487 64.5906V91.5076H321.275V64.5906H312.487ZM284.7 145.342H275.925V172.259H284.712L284.7 145.342ZM202.8 113.58H235.95V150.187H202.8V113.58ZM211.575 140.496H227.163V123.27H211.575V140.496ZM154.05 113.58H187.2V150.187H154.05V113.58ZM162.825 140.496H178.425V123.27H162.825V140.496Z" stroke="#C743A2" stroke-opacity="0.5" stroke-width="2" mask="url(#path-1-inside-1_51_79)"/>
</g>
<defs>
<clipPath id="clip0_51_79">
<rect width="390" height="335" fill="white"/>
</clipPath>
</defs>
</svg>
