<svg width="261" height="261" viewBox="0 0 261 261" fill="none" xmlns="http://www.w3.org/2000/svg">
<g clip-path="url(#clip0_31_1227)">
<path d="M85.7137 80.5179L85.7688 77.899L85.3689 77.8906L85.7688 77.899C86.0368 65.1552 93.8789 56.3283 100.937 48.4063L100.937 48.4063L100.957 48.3847C103.843 45.1444 106.567 42.0871 108.57 39.0126C110.581 35.9254 111.895 32.7785 111.912 29.3551L111.914 29.0848L111.688 28.9356C110.388 28.0747 109.527 26.5906 109.527 24.907C109.527 23.1885 110.427 21.6799 111.777 20.8285L112.01 20.6814V20.4056V3.27369C112.01 2.44423 112.155 1.89946 112.375 1.53313C112.588 1.17877 112.9 0.944806 113.338 0.78733C113.79 0.624878 114.363 0.549184 115.068 0.518757C115.589 0.496294 116.154 0.499019 116.771 0.501998C116.99 0.503058 117.217 0.50415 117.45 0.50415L142.408 0.504094C142.634 0.504094 142.859 0.503164 143.08 0.502245C144.618 0.495871 146.036 0.489998 147.127 0.798175C147.735 0.969827 148.188 1.22687 148.493 1.59469C148.793 1.95684 148.993 2.4801 148.993 3.2736V20.4068V20.6825L149.226 20.8297C150.576 21.6817 151.476 23.1898 151.476 24.9082C151.476 26.5911 150.615 28.0759 149.315 28.9369L149.089 29.0861L149.091 29.3563C149.108 32.7797 150.422 35.9266 152.434 39.0138C154.437 42.0885 157.162 45.1459 160.05 48.3862L160.068 48.4069L160.441 48.0743L160.068 48.4069C167.242 56.4564 175.21 65.4238 175.246 78.4799L175.249 131.147L171.993 130.063C163.246 127.15 155.674 122.886 148.835 117.026C148.834 117.025 148.833 117.024 148.831 117.023L148.511 116.737C148.51 116.736 148.509 116.735 148.508 116.734C145.557 113.995 138.254 106.279 137.16 104.984C137.159 104.984 137.159 104.983 137.158 104.983L137.09 104.9C125.574 91.0149 110.055 82.1707 94.4787 80.6641M94.4787 80.6641C94.4787 80.6641 94.4787 80.6641 94.4787 80.6641L94.4305 81.1618L94.4787 80.6641Z" stroke="#E82E2E" stroke-opacity="0.5"/>
<path d="M173.258 213.945L173.258 213.945C175.923 220.45 177.811 225.074 177.667 231.408L177.655 231.609C177.609 232.367 177.319 236.014 176.055 240.481C174.79 244.954 172.562 250.205 168.67 254.213L169.008 254.541L168.67 254.213C164.618 258.386 159.521 260.5 153.485 260.5C150.017 260.5 145.693 259.336 142.663 254.441L142.319 253.886L141.873 254.362C139.262 257.15 135.766 259.285 130.499 259.285C125.232 259.285 121.737 257.15 119.125 254.362L118.679 253.886L118.335 254.441C115.305 259.337 110.982 260.5 107.513 260.5C101.478 260.5 96.3792 258.384 92.3286 254.213L91.9699 254.561L92.3286 254.213C88.4364 250.205 86.2085 244.954 84.9434 240.482C83.6797 236.015 83.3885 232.368 83.3425 231.609L83.3306 231.413C83.1901 225.078 85.0776 220.455 87.743 213.948L87.743 213.948L87.7597 213.907C88.641 211.755 89.6415 209.311 90.6664 206.541C94.5418 196.065 95.3487 187.521 94.676 180.135C94.0047 172.766 91.8612 166.571 89.8705 160.818L89.8643 160.8L89.3964 160.962L89.8643 160.8C87.7314 154.636 85.7535 148.906 85.7535 142.688V91.996L89.0626 93.183L89.0627 93.183C97.1606 96.0868 104.225 100.195 110.666 105.748C114.863 109.368 118.253 113.238 121.554 117.009L121.554 117.009L121.595 117.055C123.847 119.627 125.992 122.076 128.238 124.239L128.238 124.239C138.092 133.726 151.997 139.957 166.392 141.35L166.392 141.35C168.414 141.544 170.514 141.644 172.628 141.644L172.629 141.644L175.344 141.64L175.202 144.282L175.701 144.308L175.202 144.282C174.901 149.901 173.089 155.154 171.135 160.798L171.129 160.815C169.139 166.568 166.995 172.763 166.324 180.133C165.651 187.519 166.459 196.064 170.334 206.539C171.341 209.262 172.327 211.67 173.197 213.796L173.258 213.945Z" stroke="#C743A2" stroke-opacity="0.5"/>
</g>
<defs>
<clipPath id="clip0_31_1227">
<rect width="261" height="261" fill="white"/>
</clipPath>
</defs>
</svg>
