<svg width="261" height="261" viewBox="0 0 261 261" fill="none" xmlns="http://www.w3.org/2000/svg">
<path d="M85.7138 81.9773L85.7688 79.3838L85.2689 79.3732L85.7688 79.3838C86.0367 66.7466 93.877 57.9928 100.936 50.1344L100.936 50.1343L100.955 50.1128C103.842 46.8989 106.566 43.8662 108.569 40.8164C110.58 37.754 111.895 34.6313 111.912 31.2335L111.914 30.962L111.687 30.813C110.386 29.959 109.527 28.4881 109.527 26.8215C109.527 25.1202 110.425 23.6251 111.775 22.7805L112.01 22.6336V22.3566V5.36359C112.01 4.54184 112.154 4.00292 112.374 3.64078C112.586 3.2903 112.898 3.0581 113.337 2.90165C113.789 2.74036 114.362 2.66525 115.068 2.63506C115.589 2.61278 116.154 2.61548 116.771 2.61844C116.991 2.61949 117.217 2.62057 117.45 2.62057L142.408 2.62052C142.634 2.62052 142.859 2.61959 143.08 2.61868C144.618 2.61235 146.036 2.60652 147.128 2.91235C147.736 3.08278 148.19 3.33794 148.494 3.70233C148.794 4.06065 148.993 4.57811 148.993 5.36351V22.3578V22.6347L149.228 22.7816C150.578 23.6269 151.476 25.1215 151.476 26.8227C151.476 28.4887 150.617 29.9601 149.316 30.8142L149.089 30.9633L149.091 31.2347C149.108 34.6325 150.423 37.7552 152.435 40.8176C154.439 43.8677 157.163 46.9005 160.051 50.1145L160.069 50.135C167.244 58.1199 175.21 67.013 175.246 79.9599L175.249 132.196L171.992 131.12C163.244 128.231 155.673 124.001 148.834 118.189C148.832 118.188 148.831 118.187 148.83 118.186L148.51 117.903C148.509 117.902 148.507 117.9 148.506 117.899C145.556 115.183 138.254 107.53 137.158 106.245C137.158 106.245 137.158 106.244 137.157 106.243L137.089 106.162L85.7138 81.9773ZM85.7138 81.9773L88.3073 81.9163C90.4108 81.867 92.5149 81.9336 94.4783 82.1223C110.053 83.6165 125.572 92.3881 137.088 106.161L85.7138 81.9773Z" stroke="#E82E2E" stroke-opacity="0.5"/>
<path d="M173.259 214.329L173.259 214.329C175.924 220.782 177.811 225.367 177.667 231.647L177.655 231.847C177.609 232.598 177.319 236.215 176.055 240.645C174.791 245.08 172.563 250.288 168.672 254.263L169.029 254.613L168.672 254.263C164.62 258.402 159.523 260.5 153.485 260.5C150.016 260.5 145.691 259.344 142.662 254.49L142.319 253.94L141.874 254.411C139.264 257.176 135.767 259.295 130.499 259.295C125.231 259.295 121.735 257.176 119.124 254.411L118.679 253.94L118.336 254.49C115.307 259.345 110.983 260.5 107.513 260.5C101.476 260.5 96.3775 258.4 92.3271 254.263C88.4355 250.288 86.208 245.081 84.9431 240.646C83.6796 236.216 83.3885 232.599 83.3425 231.847L83.3306 231.652C83.1902 225.371 85.077 220.786 87.7424 214.332L87.7425 214.332L87.7591 214.291C88.6405 212.156 89.641 209.732 90.666 206.984C94.5417 196.593 95.3488 188.117 94.6759 180.79C94.0046 173.48 91.8609 167.334 89.8702 161.628L89.8639 161.61C87.7308 155.496 85.7535 149.813 85.7535 143.647V93.37L89.0638 94.5478L89.0639 94.5479C97.1621 97.4282 104.227 101.504 110.668 107.011C114.865 110.602 118.254 114.44 121.555 118.18L121.555 118.18L121.596 118.226C123.848 120.777 125.993 123.206 128.24 125.352L128.24 125.352C138.094 134.762 151.998 140.942 166.392 142.324L166.393 142.324C168.414 142.517 170.514 142.615 172.628 142.615H172.629L175.343 142.611L175.202 145.227C174.901 150.8 173.089 156.009 171.136 161.608L171.13 161.625C169.139 167.331 166.995 173.476 166.324 180.787C165.651 188.115 166.459 196.592 170.335 206.983C171.342 209.683 172.328 212.072 173.197 214.18L173.259 214.329Z" stroke="#C743A2" stroke-opacity="0.5"/>
</svg>
