<svg width="41" height="40" viewBox="0 0 41 40" fill="none" xmlns="http://www.w3.org/2000/svg">
<mask id="path-1-inside-1_43_45" fill="white">
<path d="M1 6.66667C1 2.98477 3.98477 0 7.66667 0H21C32.0457 0 41 8.95431 41 20V20C41 31.0457 32.0457 40 21 40H3.26415C2.0137 40 1 38.9863 1 37.7358V6.66667Z"/>
</mask>
<path d="M1 6.66667C1 1.05177 5.55177 -3.5 11.1667 -3.5H24.9227C36.5634 -3.5 46 5.93664 46 17.5773L36 20C36 10.8873 29.2843 3.5 21 3.5H7.66667C3.98477 3.5 1 4.91776 1 6.66667V6.66667ZM41 40H1H41ZM1 40V0V40ZM24.9227 -3.5C36.5634 -3.5 46 5.93664 46 17.5773C46 29.961 35.961 40 23.5773 40H21C29.2843 40 36 31.0457 36 20C36 10.8873 29.2843 3.5 21 3.5L24.9227 -3.5Z" fill="#60EBA8" mask="url(#path-1-inside-1_43_45)"/>
<path d="M7 29.688C5.95467 29.368 5.09067 28.76 4.408 27.864C3.74667 26.9467 3.416 25.7627 3.416 24.312C3.416 22.6053 3.896 21.1227 4.856 19.864C5.816 18.584 7.13867 17.6027 8.824 16.92C10.5093 16.2373 12.4187 15.896 14.552 15.896C15.576 15.896 16.568 15.9707 17.528 16.12C18.5093 16.248 19.64 16.44 20.92 16.696C21.688 16.8453 22.456 16.984 23.224 17.112C23.992 17.2187 24.6533 17.272 25.208 17.272C26.1467 17.272 27 17.1227 27.768 16.824C28.5573 16.504 29.1973 16.0027 29.688 15.32C29.6027 16.792 29.112 17.9547 28.216 18.808C27.32 19.64 26.0613 20.056 24.44 20.056C23.5013 20.056 22.552 19.9387 21.592 19.704C20.6533 19.448 19.416 19.0747 17.88 18.584C16.6 18.136 15.5227 17.8053 14.648 17.592C13.7733 17.3573 12.952 17.24 12.184 17.24C10.968 17.24 9.93333 17.5493 9.08 18.168C8.22667 18.7867 7.576 19.5973 7.128 20.6C6.70133 21.5813 6.488 22.6373 6.488 23.768C6.488 25.0267 6.78667 26.0933 7.384 26.968C8.00267 27.8427 8.99467 28.6107 10.36 29.272L10.232 29.432C8.568 29.432 7.49067 29.5173 7 29.688ZM5.976 39.48C5.016 39.48 4.12 39.384 3.288 39.192C2.456 39.0213 1.77333 38.8187 1.24 38.584C1.06933 37.9227 0.984 37.1867 0.984 36.376L1.176 36.024C2.56267 37.5173 4.216 38.264 6.136 38.264C9.67733 38.264 12.0133 35.8107 13.144 30.904C14.1253 26.7013 14.8827 23.544 15.416 21.432C15.8427 20.856 16.3547 20.344 16.952 19.896C17.5707 19.4267 18.136 19.0853 18.648 18.872L18.936 18.968C18.552 19.7787 18.2 20.856 17.88 22.2C17.56 23.5227 17.144 25.4213 16.632 27.896C16.4613 28.8347 16.2587 29.8053 16.024 30.808C15.2773 33.8373 14.0187 36.0453 12.248 37.432C10.4987 38.7973 8.408 39.48 5.976 39.48Z" fill="#60EBA8"/>
</svg>
