<svg width="187" height="220" viewBox="0 0 187 220" fill="none" xmlns="http://www.w3.org/2000/svg">
<g id="windmill">
<path id="Vector" d="M110.5 112C110.5 125.5 123.008 157.07 128.7 167.034" stroke="#C743A2" stroke-linecap="round" stroke-linejoin="round"/>
<path id="Vector_2" d="M59.8722 166.018C69.2869 149.523 75.1886 131.259 77.2065 112.374" stroke="#C743A2" stroke-linecap="round" stroke-linejoin="round"/>
<path id="Vector_3" d="M72.5 111.521C72.5 103.021 78.7398 92.3547 81.4347 90.1209L93.0159 80.499L105.444 90.099C108.718 92.6283 111.369 95.8744 113.193 99.5879C115.017 103.301 115.966 107.384 115.966 111.521H72.5Z" stroke="#C743A2" stroke-linecap="round" stroke-linejoin="round"/>
<path id="Vector_4" d="M93.6222 131.124C95.2798 131.124 96.8695 131.782 98.0416 132.955C99.2137 134.127 99.8722 135.716 99.8722 137.374V149.874H87.3722V137.374C87.3722 135.716 88.0306 134.127 89.2027 132.955C90.3748 131.782 91.9646 131.124 93.6222 131.124Z" stroke="#C743A2" stroke-linecap="round" stroke-linejoin="round"/>
<path id="Vector_5" d="M87.3722 112.374C87.3722 112.374 87.1472 146.637 83.3534 167.033" stroke="#C743A2" stroke-linecap="round" stroke-linejoin="round"/>
<path id="Vector_6" d="M100.085 120.624C100.428 136.168 101.808 151.672 104.213 167.033" stroke="#C743A2" stroke-linecap="round" stroke-linejoin="round"/>
<path id="Vector_7" d="M49.4878 178.012L64.0346 194.49" stroke="#C743A2" stroke-linecap="round" stroke-linejoin="round"/>
<path id="Vector_8" d="M143.716 178.012H37.9159L31.7597 168.624H149.872L143.716 178.012Z" stroke="#C743A2" stroke-linecap="round" stroke-linejoin="round"/>
<path id="Vector_9" d="M121.747 178.012H65.4972V218.624H121.747V178.012Z" stroke="#C743A2" stroke-linecap="round" stroke-linejoin="round"/>
<path id="Vector_10" d="M93.6222 190.499C95.2798 190.499 96.8695 191.157 98.0416 192.33C99.2137 193.502 99.8722 195.091 99.8722 196.749V209.033H87.3722V196.749C87.3722 195.091 88.0306 193.502 89.2027 192.33C90.3748 191.157 91.9646 190.499 93.6222 190.499Z" stroke="#C743A2" stroke-linecap="round" stroke-linejoin="round"/>
<path id="Vector_11" d="M121.941 195.727L137.372 177.999" stroke="#C743A2" stroke-linecap="round" stroke-linejoin="round"/>
<path id="Vector_12" d="M112.372 177.999V196.749" stroke="#C743A2" stroke-linecap="round" stroke-linejoin="round"/>
<path id="Vector_13" d="M74.8722 177.999V196.749" stroke="#C743A2" stroke-linecap="round" stroke-linejoin="round"/>
<path id="Vector_14" d="M93.6222 190.499V179.04" stroke="#C743A2" stroke-linecap="round" stroke-linejoin="round"/>
<path id="Vector_15" d="M46.7471 168.624V177.999" stroke="#C743A2" stroke-linecap="round" stroke-linejoin="round"/>
<path id="Vector_16" d="M59.2471 168.624V177.999" stroke="#C743A2" stroke-linecap="round" stroke-linejoin="round"/>
<path id="Vector_17" d="M71.7472 168.624V177.999" stroke="#C743A2" stroke-linecap="round" stroke-linejoin="round"/>
<path id="Vector_18" d="M84.2472 168.624V177.999" stroke="#C743A2" stroke-linecap="round" stroke-linejoin="round"/>
<path id="Vector_19" d="M96.7472 168.624V177.999" stroke="#C743A2" stroke-linecap="round" stroke-linejoin="round"/>
<path id="Vector_20" d="M109.247 168.624V177.999" stroke="#C743A2" stroke-linecap="round" stroke-linejoin="round"/>
<path id="Vector_21" d="M121.747 168.624V177.999" stroke="#C743A2" stroke-linecap="round" stroke-linejoin="round"/>
<path id="Vector_22" d="M134.247 168.624V177.999" stroke="#C743A2" stroke-linecap="round" stroke-linejoin="round"/>
<g id="mills">
<path id="Vector_23" d="M93.8046 14.0353L93.8068 127.046" stroke="#E82E2E" stroke-linecap="round" stroke-linejoin="round"/>
<path id="Vector_24" d="M173.577 93.8081H60.5684" stroke="#E82E2E" stroke-linecap="round" stroke-linejoin="round"/>
<path id="Vector_25" d="M107.098 14.0359H93.8041V76.0796H107.098V14.0359Z" fill="#0D0D0D" stroke="#E82E2E" stroke-linecap="round" stroke-linejoin="round"/>
<path id="Vector_26" d="M93.8067 111.535H80.5129V173.579H93.8067V111.535Z" fill="#0D0D0D" stroke="#E82E2E" stroke-linecap="round" stroke-linejoin="round"/>
<path id="Vector_27" d="M76.0777 93.8079V80.5142H14.0339V93.8079H76.0777Z" fill="#0D0D0D" stroke="#E82E2E" stroke-linecap="round" stroke-linejoin="round"/>
<path id="Vector_28" d="M173.579 107.101V93.8076H111.535V107.101H173.579Z" fill="#0D0D0D" stroke="#E82E2E" stroke-linecap="round" stroke-linejoin="round"/>
</g>
</g>
</svg>
