<svg width="100" height="100" viewBox="0 0 100 100" fill="none" xmlns="http://www.w3.org/2000/svg">
<g clip-path="url(#clip0_53_84)">
<path d="M44.4725 84.9492L36.0084 76.484L41.1804 71.312L49.6454 79.7772L49.999 80.1308L50.3525 79.7772L58.8176 71.312L63.9894 76.484L55.5244 84.9494L55.1708 85.3029L55.5244 85.6565L63.9894 94.1211L58.8176 99.2931L50.3525 90.8285L49.999 90.475L49.6454 90.8285L41.1804 99.2931L36.0084 94.121L44.4725 85.6563L44.826 85.3028L44.4725 84.9492ZM36.0091 5.87849L41.1804 0.707099L49.6462 9.17232L49.9998 9.52585L50.3533 9.1723L58.8182 0.70709L63.9903 5.8785L55.5244 14.3441L55.1708 14.6977L55.5244 15.0513L63.9903 23.5168L58.8182 28.6883L50.3533 20.223L49.9997 19.8694L49.6462 20.223L41.1821 28.6883L36.0092 23.5167L44.4742 15.0512L44.8277 14.6977L44.4742 14.3442L36.0091 5.87849ZM50.3533 44.505L58.8182 36.0397L63.9904 41.212L55.5256 49.6774L55.1721 50.0309L55.5256 50.3845L63.9904 58.8492L58.8182 64.0212L50.3533 55.5565L49.9998 55.2029L49.6462 55.5565L41.1815 64.0212L36.0092 58.8492L44.4742 50.3845L44.8278 50.0309L44.4742 49.6774L36.0092 41.212L41.1815 36.0397L49.6462 44.505L49.9998 44.8586L50.3533 44.505Z" stroke="#C743A2"/>
</g>
<defs>
<clipPath id="clip0_53_84">
<rect width="100" height="100" fill="white"/>
</clipPath>
</defs>
</svg>
